<svg viewBox="0 0 176 54" xmlns="http://www.w3.org/2000/svg"><g fill="none"><path d="M82.25 40.06C82.25 44.65 85.81 48.12 90.55 48.12 93.66 48.12 96.26 46.64 97.68 44.29L93.85 41.97C93.22 43.12 92.01 43.87 90.56 43.87 88.38 43.87 86.78 42.24 86.78 40.07 86.78 37.9 88.38 36.27 90.56 36.27 92.01 36.27 93.22 37.02 93.85 38.17L97.68 35.85C96.26 33.5 93.66 32.01 90.55 32.01 85.81 32.01 82.25 35.48 82.25 40.07M82.89 22.96 86.04 22.96 86.08 20.58zM75.46 32.36H79.86999999999999V47.76H75.46zM74.93 27.83C74.93 29.4 76.11 30.55 77.65 30.55 79.19 30.55 80.4 29.4 80.4 27.83 80.4 26.26 79.22 25.14 77.65 25.14 76.08 25.14 74.93 26.29 74.93 27.83M46.55 32.23C48.1 33.19 48.98 36.72 50.16 40.41 51.38 44.22 52.58 47.76 52.58 47.76L57.11 47.76 60.01 37.83 62.91 47.76 67.44 47.76 72.84 32.36 68.04 32.36 65.2 42.05 62.3 32.36 57.83 32.36 54.93 42.02C54.93 42.02 53.78 38.22 53.65 37.82 53.08 35.99 51.72 33.46 47.91 32.43 47.37 32.28 46.79 32.23 46.55 32.22M10.87 47.76 17.12 32.36 12.2 32.36 8.67 42.17 5.1 32.36.06 32.36 6.34 47.76zM33.97 40.12C33.97 35.44 30.5 32 25.88 32 21.26 32 17.67 35.44 17.67 39.97 17.67 44.5 21.35 48.12 26.24 48.12 28.52 48.12 30.55 47.38 32.11 46.14L29.33 43.39C28.57 43.91 27.55 44.29 26.36 44.29 24.43 44.29 22.95 43.23 22.41 41.51L33.88 41.51C33.94 41.12 33.97 40.54 33.97 40.12ZM22.38 38.58C22.83 36.89 24.16 35.8 25.82 35.8 27.48 35.8 28.81 36.86 29.29 38.58L22.38 38.58ZM43.25 32.89C42.57 33.15 41.96 33.5 41.34 34.12L41.34 32.37 36.93 32.37 36.93 47.77 41.34 47.77 41.34 40.58C41.34 38.19 42.8 36.66 45.08 36.66L45.63 36.66C45.91 36.66 46.31 36.66 46.54 36.71 45.76 34.43 44.85 33.24 44.26 32.83 43.9 32.74 43.62 32.78 43.25 32.9M47.48 11.82C47.48 11.04 48.45 10.7 49.62 10.7 51.13 10.7 52.4 11.27 53.54 12.06L55.59 9.22C54.14 8.16 52.18 7.2 49.46 7.2 45.96 7.2 43.06 8.83 43.06 12.15 43.06 15.77 46.29 16.5 48.74 17.04 50.31 17.4 51.49 17.7 51.49 18.58 51.49 19.39 50.49 19.82 49.04 19.82 47.26 19.82 45.81 19.15 44.63 18.16L42.58 21C44.09 22.24 46.26 23.32 49.19 23.32 52.93 23.32 55.89 21.54 55.89 18.16 55.89 14.57 52.63 13.81 50.21 13.3 48.64 12.97 47.46 12.7 47.46 11.82M65.08 23.32C66.26 23.32 67.13 23.11 68.04 22.66L68.04 18.52C67.47 18.82 66.8 19.06 66.02 19.06 64.72 19.06 64.09 18.4 64.09 17.22L64.09 11.57 68.05 11.57 68.05 7.55 64.09 7.55 64.09 3.7 59.68 3.7 59.68 7.55 57.36 7.55 57.36 11.57 59.68 11.57 59.68 17.94C59.68 21.11 61.34 23.32 65.08 23.32" fill="#002b66"/><path d="M100.24 22.97 104.65 22.97 104.65.55 100.24.55 100.24 9.11C99.06 7.9 97.46 7.21 95.59 7.21 93.72 7.21 92.26 7.77 90.7 9.12 88.17 11.31 83.74 15.52 80.43 18.11 79.87 18.55 78.88 19.07 77.87 19.07 75.73 19.07 74.12 17.44 74.12 15.26 74.12 13.08 75.72 11.46 77.87 11.46 79.79 11.46 81.43 12.74 81.64 14.43 81.65 14.54 81.64 14.65 81.62 14.76L86.04 10.93 86.04 7.56 81.63 7.56 81.63 9.1C80.45 7.89 78.85 7.2 76.98 7.2 72.75 7.2 69.55 10.67 69.55 15.26 69.55 19.85 72.75 23.32 76.98 23.32 78.34 23.32 79.67 22.93 80.57 22.28 86.09 18.33 90.87 14.68 94.22 12.17 94.74 11.78 95.6 11.46 96.45 11.46 98.62 11.46 100.22 13.09 100.22 15.27 100.22 17.45 98.62 19.08 96.45 19.08 94.28 19.08 93.01 17.92 92.73 15.68L88.76 18.56C89.99 21.39 92.2 23.34 95.57 23.34 97.44 23.34 99.04 22.65 100.22 21.44L100.22 22.98 100.24 22.97ZM109.72 32.36 104.65 38.1 104.65 26.52 100.24 26.52 100.24 47.76 104.65 47.76 104.65 44.05 105.79 42.81 109.84 47.76 115.64 47.76 108.9 39.46 115.42 32.36zM121.78 27.51C122.43 25.17 122.22 21.81 120.75 20.65 118.31 18.73 113.89 20.4 113.86 16.7L113.86 11.12 117.82 11.12 117.82 7.1 113.86 7.1 113.86 3.25 109.45 3.25 109.45 7.1 107.13 7.1 107.13 11.12 109.45 11.12 109.45 16.65C109.45 19.26 109.76 21.42 112.51 22.5 114.88 23.43 117.29 23.29 118.86 23.76 120.33 24.2 120.94 24.91 121.78 27.51" fill="#002b66"/><path d="M117.38 47.82 122.27 47.82 122.27 35.28C122.27 32.34 121.4 30.31 120.2 28.12 119.98 27.73 119.27 26.44 119.11 26.05 118.32 28.71 117.38 31.97 117.38 38.12L117.38 47.82ZM132.46 43.82C132.23 43.91 131.83 43.82 131.64 43.82 130.5 43.82 129.42 42.71 129.42 40.98L129.42 32.34 125.01 32.34 125.01 41.58C125.01 44.94 126.64 47.36 129.68 46.28 130.69 45.91 131.94 45.32 132.47 43.81" fill="#002b66"/><path d="M139.57 41.59 139.57 32.35 135.16 32.35 135.16 41.86C135.16 44.85 133.34 46.92 131.14 47.61 130.92 47.68 130.68 47.8 130.45 47.84 131.19 48.04 131.41 48.11 132.29 48.11 136.7 48.11 139.57 45.51 139.57 41.59M152.32 47.76 156.73 47.76 156.73 38.52C156.73 34.59 153.83 32 149.45 32 145.07 32 142.17 34.6 142.17 38.52L142.17 47.76 146.58 47.76 146.58 39.12C146.58 37.4 147.73 36.25 149.45 36.25 151.17 36.25 152.32 37.4 152.32 39.12 152.32 39.12 152.32 47.76 152.32 47.76ZM169.65 47.61 164.85 47.61C164.03 47.61 163.46 47.16 163.46 46.46 163.46 46.01 163.7 45.59 164.15 45.28 164.88 45.5 165.63 45.59 166.42 45.59 170.58 45.59 173.72 42.69 173.72 38.79 173.72 37.31 173.27 36.02 172.51 34.93 172.67 34.35 173.24 33.99 173.96 33.99L175.05 33.99 175.05 29.92 173.75 29.92C171.64 29.92 170.1 30.97 169.65 32.63 168.68 32.24 167.59 32 166.42 32 162.25 32 159.14 34.9 159.14 38.79 159.14 40.7 159.89 42.39 161.16 43.59 159.86 44.38 159.05 45.95 159.05 47.58 159.05 50.15 161.01 51.87 164 51.87L168.8 51.87C170.04 51.87 170.88 52.53 171 53.53L175.53 52.29C174.96 49.33 172.76 47.61 169.65 47.61L169.65 47.61ZM166.42 36.17C167.99 36.17 169.19 37.28 169.19 38.79 169.19 40.3 167.99 41.42 166.42 41.42 164.85 41.42 163.67 40.3 163.67 38.79 163.67 37.28 164.81 36.17 166.42 36.17Z" fill="#002b66"/></g></svg>
